<svg xmlns="http://www.w3.org/2000/svg" width="167" height="44" fill="none" viewBox="0 0 167 44">
  <path fill="#0D114F" d="M56.404 30V14.789h4.828v3.187c.253-1.094.769-1.936 1.547-2.525.8-.61 1.683-.915 2.65-.915.506 0 .927.042 1.263.126v4.482a13.466 13.466 0 00-1.451-.095c-2.672 0-4.008 1.694-4.008 5.081V30h-4.829zm24.277-1.799c-1.514 1.515-3.555 2.272-6.122 2.272-2.567 0-4.618-.757-6.154-2.272-1.536-1.515-2.304-3.45-2.304-5.807 0-2.356.768-4.281 2.304-5.775 1.536-1.515 3.587-2.272 6.154-2.272 2.567 0 4.608.757 6.123 2.272 1.535 1.494 2.303 3.419 2.303 5.775 0 2.357-.768 4.292-2.303 5.807zm-6.122-1.83c1.115 0 1.999-.368 2.651-1.105.652-.736.978-1.693.978-2.872 0-1.178-.326-2.135-.978-2.872-.652-.736-1.536-1.104-2.65-1.104-1.137 0-2.031.368-2.683 1.104-.632.737-.947 1.694-.947 2.872 0 1.179.315 2.136.947 2.872.652.737 1.546 1.105 2.682 1.105zm16.776 4.102c-2.483 0-4.46-.736-5.933-2.209-1.473-1.494-2.21-3.45-2.21-5.87s.737-4.365 2.21-5.838c1.472-1.473 3.45-2.21 5.933-2.21 2.25 0 4.081.558 5.491 1.673 1.41 1.115 2.21 2.63 2.399 4.545h-4.83c-.357-1.43-1.367-2.146-3.029-2.146-1.052 0-1.872.347-2.461 1.041-.59.695-.884 1.673-.884 2.935 0 1.263.294 2.241.884 2.935.589.695 1.41 1.042 2.461 1.042 1.662 0 2.672-.674 3.03-2.02h4.829c-.19 1.872-.99 3.366-2.399 4.481-1.41 1.094-3.24 1.641-5.491 1.641zm24.32-.473h-5.902l-4.828-6.596V30h-4.829V7.909h4.829v13.223l4.954-6.344h5.681l-6.059 7.196L115.655 30zm14.026-8.395c0 .631-.042 1.336-.127 2.115h-11.235c.042.989.379 1.757 1.01 2.304.631.547 1.484.82 2.557.82 1.472 0 2.419-.473 2.84-1.42h4.734c-.232 1.494-1.052 2.714-2.462 3.66-1.388.927-3.093 1.39-5.112 1.39-2.588 0-4.629-.716-6.123-2.147-1.494-1.43-2.241-3.408-2.241-5.933 0-2.482.747-4.439 2.241-5.87 1.494-1.451 3.482-2.177 5.965-2.177 2.356 0 4.271.673 5.744 2.02 1.472 1.346 2.209 3.092 2.209 5.238zm-11.362-.883h6.596c-.021-1.01-.305-1.789-.852-2.336-.547-.547-1.336-.82-2.367-.82s-1.851.294-2.461.883c-.589.568-.895 1.326-.916 2.273zm20.153 5.522c.673 0 1.231-.031 1.673-.094V30c-.926.168-1.999.253-3.219.253a9.891 9.891 0 01-1.452-.095 6.469 6.469 0 01-1.42-.41 3.69 3.69 0 01-1.294-.916c-.337-.378-.631-.925-.884-1.64-.231-.716-.347-1.558-.347-2.526v-6.059h-2.398V14.79h2.398v-4.513h4.829v4.513h3.44v3.818h-3.44v5.05c0 1.03.178 1.725.536 2.082.358.337.884.505 1.578.505zM159.84 14.79h4.797v21.523h-4.829v-7.637h.032v-.821c-.421.757-1.073 1.378-1.957 1.862-.862.463-1.82.694-2.872.694-2.209 0-3.955-.747-5.238-2.24-1.284-1.494-1.925-3.42-1.925-5.776 0-2.314.662-4.229 1.988-5.743 1.325-1.515 3.072-2.273 5.239-2.273 1.073 0 2.03.232 2.871.695.842.462 1.473 1.094 1.894 1.893v-2.178zm-3.44 11.613c1.157 0 2.051-.378 2.683-1.136.631-.757.946-1.715.946-2.872 0-1.136-.315-2.083-.946-2.84-.632-.757-1.526-1.136-2.683-1.136-1.094 0-1.978.368-2.651 1.104-.652.737-.978 1.694-.978 2.872 0 1.179.326 2.146.978 2.904.673.736 1.557 1.104 2.651 1.104z"/>
  <path fill="url(#paint0_linear_10905_622)" d="M146.158 29.4c-.589.61-1.325.916-2.209.916-.883 0-1.63-.305-2.24-.916a3.028 3.028 0 01-.884-2.177c0-.863.295-1.589.884-2.178.61-.61 1.357-.915 2.24-.915.884 0 1.62.305 2.209.915.611.59.916 1.315.916 2.178 0 .841-.305 1.567-.916 2.177z"/>
  <g>
    <rect width="43.832" height="43.832" fill="url(#paint1_linear_10905_622)" rx="7.89"/>
    <g filter="url(#filter0_di_10905_622)">
      <path fill="#FAFAFA" d="M33.258 32.413h-3.91a.316.316 0 01-.312-.29 7.625 7.625 0 00-.015-.15c-.224-2.043-2.423-3.798-4.463-3.55-1.489.182-2.723 1.306-4.213 1.475-1.006.113-1.883.061-2.885-.135a8.444 8.444 0 01-2.508-.926c-1.839-1.033-2.826-2.096-3.741-3.698-.53-.928-.908-1.943-1.046-3.002a9.994 9.994 0 01-.01-2.5 9.03 9.03 0 011.241-3.681c.954-1.568 1.986-2.543 3.666-3.456a8.63 8.63 0 012.268-.843c2.002-.44 3.299-.311 5.246.299 1.083.34 2.26 1.067 3.26 2.016 2.188 2.076 2.355 5.334 2.41 8.35a.444.444 0 01-.525.44c-1.351-.244-2.323-.263-3.65-.052-.357.056-.65-.312-.554-.66.042-.15.075-.298.1-.444.392-2.335-1.206-5-3.562-5.23-1.337-.13-2.66.416-3.641 1.51-.585.552-.91 1.417-1.011 2.34-.265 2.391 1.691 4.704 4.094 4.818.459.022.901-.045 1.354-.198 1.425-.483 2.814-1.206 4.315-1.093 4.515.34 7.686 2.376 8.52 8.169a.432.432 0 01-.428.491z"/>
    </g>
  </g>
  <defs>
    <linearGradient id="paint0_linear_10905_622" x1="189.169" x2="177.57" y1="-59.029" y2="54.134" gradientUnits="userSpaceOnUse">
      <stop stop-color="#5498FF"/>
      <stop offset=".516" stop-color="#428EFF"/>
      <stop offset="1" stop-color="#297FFF"/>
    </linearGradient>
    <linearGradient id="paint1_linear_10905_622" x1="52.463" x2="19.613" y1="-66.308" y2="48.538" gradientUnits="userSpaceOnUse">
      <stop stop-color="#5498FF"/>
      <stop offset=".516" stop-color="#428EFF"/>
      <stop offset="1" stop-color="#297FFF"/>
    </linearGradient>
    <filter id="filter0_di_10905_622" width="26.874" height="24.282" x="8.449" y="11.396" color-interpolation-filters="sRGB" filterUnits="userSpaceOnUse">
      <feFlood flood-opacity="0" result="BackgroundImageFix"/>
      <feColorMatrix in="SourceAlpha" result="hardAlpha" values="0 0 0 0 0 0 0 0 0 0 0 0 0 0 0 0 0 0 127 0"/>
      <feOffset dy="1.632"/>
      <feGaussianBlur stdDeviation=".816"/>
      <feColorMatrix values="0 0 0 0 0 0 0 0 0 0 0 0 0 0 0 0 0 0 0.07 0"/>
      <feBlend in2="BackgroundImageFix" result="effect1_dropShadow_10905_622"/>
      <feBlend in="SourceGraphic" in2="effect1_dropShadow_10905_622" result="shape"/>
      <feColorMatrix in="SourceAlpha" result="hardAlpha" values="0 0 0 0 0 0 0 0 0 0 0 0 0 0 0 0 0 0 127 0"/>
      <feOffset dy="1.632"/>
      <feGaussianBlur stdDeviation="1.02"/>
      <feComposite in2="hardAlpha" k2="-1" k3="1" operator="arithmetic"/>
      <feColorMatrix values="0 0 0 0 0.219608 0 0 0 0 0.533333 0 0 0 0 1 0 0 0 0.13 0"/>
      <feBlend in2="shape" result="effect2_innerShadow_10905_622"/>
    </filter>
  </defs>
</svg>
