<svg xmlns="http://www.w3.org/2000/svg" width="149" height="135" fill="none" viewBox="0 0 149 135">
  <circle cx="81.5" cy="67.5" r="67.5" fill="url(#paint0_linear_37_1686)" opacity=".1"/>
  <path fill="#1D4885" fill-rule="evenodd" d="M76.423 66.501c-11.78 0-21.329 8.379-21.329 18.715v.047c0 10.336 9.55 18.715 21.33 18.715h31.453c1.175 0 2.327-.084 3.451-.244l6.094 5.164a.953.953 0 00.617.219c.491 0 .889-.349.889-.779v-7.065c6.161-3.282 10.278-9.224 10.278-16.01v-.047c0-10.336-9.55-18.715-21.329-18.715H76.423z" clip-rule="evenodd"/>
  <path fill="url(#paint1_linear_37_1686)" d="M81.596 21.665h-44.91c-16.829 0-30.47 11.97-30.47 26.735 0 14.765 13.641 26.734 30.47 26.734h44.91c16.828 0 30.47-11.97 30.47-26.734 0-14.766-13.642-26.735-30.47-26.735z"/>
  <path fill="url(#paint2_linear_37_1686)" fill-rule="evenodd" d="M20.895 67.358v13.995c0 .616.568 1.115 1.27 1.115.328 0 .645-.112.881-.313l11.722-9.923-13.873-4.874z" clip-rule="evenodd"/>
  <path fill="#fff" d="M38.748 51.742c2.718 0 4.92-1.933 4.92-4.317 0-2.384-2.203-4.317-4.92-4.317s-4.92 1.933-4.92 4.317c0 2.384 2.203 4.317 4.92 4.317zM58.903 51.742c2.717 0 4.92-1.933 4.92-4.317 0-2.384-2.203-4.317-4.92-4.317s-4.92 1.933-4.92 4.317c0 2.384 2.203 4.317 4.92 4.317zM79.533 51.742c2.717 0 4.92-1.933 4.92-4.317 0-2.384-2.203-4.317-4.92-4.317s-4.92 1.933-4.92 4.317c0 2.384 2.203 4.317 4.92 4.317z"/>
  <defs>
    <linearGradient id="paint0_linear_37_1686" x1="175.583" x2="74.406" y1="-204.224" y2="149.495" gradientUnits="userSpaceOnUse">
      <stop stop-color="#5498FF"/>
      <stop offset=".516" stop-color="#428EFF"/>
      <stop offset="1" stop-color="#297FFF"/>
    </linearGradient>
    <linearGradient id="paint1_linear_37_1686" x1="132.909" x2="111.458" y1="-59.222" y2="89.238" gradientUnits="userSpaceOnUse">
      <stop stop-color="#5498FF"/>
      <stop offset=".516" stop-color="#428EFF"/>
      <stop offset="1" stop-color="#297FFF"/>
    </linearGradient>
    <linearGradient id="paint2_linear_37_1686" x1="37.499" x2="25.337" y1="44.5" y2="83.54" gradientUnits="userSpaceOnUse">
      <stop stop-color="#5498FF"/>
      <stop offset=".516" stop-color="#428EFF"/>
      <stop offset="1" stop-color="#297FFF"/>
    </linearGradient>
  </defs>
</svg>
